<svg xmlns="http://www.w3.org/2000/svg" xmlns:xlink="http://www.w3.org/1999/xlink" width="1080" zoomAndPan="magnify" viewBox="0 0 810 809.999993" height="1080" preserveAspectRatio="xMidYMid meet" version="1.0"><defs><clipPath id="76ab7f8e6c"><path d="M 237 197.707031 L 573.484375 197.707031 L 573.484375 509.707031 L 237 509.707031 Z M 237 197.707031 " clip-rule="nonzero"/></clipPath><clipPath id="90604aa62d"><path d="M 236.734375 230 L 517 230 L 517 460 L 236.734375 460 Z M 236.734375 230 " clip-rule="nonzero"/></clipPath><clipPath id="afdd3a0e19"><path d="M 236.734375 267 L 472 267 L 472 426 L 236.734375 426 Z M 236.734375 267 " clip-rule="nonzero"/></clipPath><clipPath id="2366e03946"><path d="M 12.921875 776.164062 L 35.421875 776.164062 L 35.421875 798.664062 L 12.921875 798.664062 Z M 12.921875 776.164062 " clip-rule="nonzero"/></clipPath></defs><rect x="-81" width="972" fill="#ffffff" y="-80.999999" height="971.999992" fill-opacity="1"/><rect x="-81" width="972" fill="#ffffff" y="-80.999999" height="971.999992" fill-opacity="1"/><g clip-path="url(#76ab7f8e6c)"><path fill="#5271ff" d="M 311.453125 485.917969 C 313.289062 485.917969 315.117188 485.957031 316.9375 486.03125 C 318.101562 486.011719 319.261719 486.003906 320.417969 486.003906 C 369.023438 486.003906 396.496094 504.050781 420.894531 504.050781 C 462.40625 504.050781 454.101562 469.386719 456.867188 421.695312 C 461.027344 349.867188 567.738281 415.941406 567.738281 356.449219 C 567.738281 321.824219 537.261719 272.871094 467.003906 271.519531 C 409.15625 270.402344 407.945312 203.730469 322.339844 203.730469 C 270.183594 203.730469 243.648438 229.019531 238.9375 229.019531 C 237.589844 229.019531 237.019531 227.394531 237.019531 226.667969 C 237.019531 221.445312 277.089844 197.882812 320.128906 197.882812 C 410.601562 197.882812 414.96875 265.347656 465.210938 265.609375 C 551.96875 266.0625 573.484375 331.410156 573.484375 357.4375 C 573.484375 364.5625 573.292969 386.46875 544.308594 388.554688 C 478.53125 393.285156 460.765625 379.769531 460.765625 455.320312 L 460.765625 455.902344 C 460.765625 462.761719 460.371094 469.621094 460.101562 476.480469 C 458.871094 507.84375 426.449219 509.726562 420.726562 509.726562 C 391.617188 509.726562 374.636719 491.746094 313.007812 491.746094 C 271.199219 491.746094 246.566406 507.089844 239.785156 507.089844 C 239.550781 507.089844 239.316406 507.089844 239.085938 507.066406 C 238.632812 506.910156 238.257812 506.648438 237.960938 506.273438 C 237.664062 505.898438 237.492188 505.472656 237.445312 505 C 237.445312 501.511719 275.417969 485.917969 311.453125 485.917969 Z M 311.453125 485.917969 " fill-opacity="1" fill-rule="nonzero"/></g><g clip-path="url(#90604aa62d)"><path fill="#5271ff" d="M 293.941406 444.972656 C 295.179688 444.972656 296.375 444.949219 297.449219 444.949219 C 336.015625 445.511719 333.511719 447.226562 339.425781 447.351562 C 358.78125 447.757812 381.808594 453.4375 394.570312 453.4375 C 424.480469 453.4375 421.992188 428.769531 421.992188 428.316406 C 421.992188 411.769531 414.847656 400.09375 414.847656 383.453125 C 414.847656 332.6875 510.515625 352.976562 510.515625 333.042969 C 510.515625 315.292969 473.503906 306.230469 453.351562 301.957031 C 361.953125 282.589844 368.613281 236.371094 304.621094 236.371094 C 267.035156 236.371094 242.792969 263.441406 238.636719 263.441406 C 238.355469 263.421875 238.089844 263.351562 237.835938 263.226562 C 237.582031 263.101562 237.359375 262.9375 237.167969 262.726562 C 236.980469 262.519531 236.835938 262.28125 236.738281 262.015625 C 236.636719 261.75 236.59375 261.476562 236.597656 261.195312 C 236.597656 258.972656 265.144531 230.554688 304.707031 230.554688 C 339.804688 230.554688 368.144531 252.597656 378.835938 261.507812 C 418.242188 294.351562 411.507812 285.996094 477.761719 301.777344 C 495.222656 305.933594 516.773438 320.402344 516.773438 333.707031 C 516.773438 361.925781 420.65625 336.585938 420.65625 383.671875 C 420.65625 400.652344 427.75 409.867188 427.75 429.085938 C 427.75 430.847656 429.820312 459.230469 392.558594 459.230469 C 383.390625 459.230469 340.890625 450.96875 310.113281 450.96875 C 309.335938 450.96875 308.855469 450.96875 307.199219 450.96875 C 300.753906 450.96875 294.304688 450.839844 287.855469 450.839844 C 261.699219 450.839844 249.90625 455.226562 239.484375 455.226562 C 238.929688 455.03125 238.464844 454.710938 238.082031 454.265625 C 237.699219 453.824219 237.449219 453.3125 237.335938 452.738281 C 237.335938 448.519531 273.414062 444.855469 287.082031 444.855469 C 290.765625 444.855469 291.527344 444.972656 293.941406 444.972656 Z M 293.941406 444.972656 " fill-opacity="1" fill-rule="nonzero"/></g><g clip-path="url(#afdd3a0e19)"><path fill="#5271ff" d="M 457.480469 338.195312 C 450.09375 338.195312 442.71875 338.027344 436.238281 337.9375 C 432.792969 337.730469 429.402344 337.628906 426.070312 337.628906 C 384.699219 337.628906 375.089844 347.261719 375.089844 359.574219 C 375.089844 381.132812 394.847656 398.5625 394.847656 411.8125 C 394.847656 425.085938 381.949219 425.503906 379.722656 425.503906 C 365.710938 425.503906 310.308594 409.429688 276.453125 409.429688 C 265.128906 409.429688 243.683594 413.679688 239.34375 413.679688 C 238.722656 413.679688 237.386719 412.082031 237.386719 411.136719 C 237.386719 407.847656 263 403.753906 277.105469 403.753906 C 303.398438 403.753906 373.792969 419.773438 378.863281 419.773438 C 380.867188 419.773438 388.761719 418.898438 388.761719 411.910156 C 388.761719 399.359375 369.613281 383.527344 369.613281 361.195312 C 369.613281 349.871094 370.917969 331.75 426.484375 331.75 C 434.144531 331.75 448.667969 332.957031 454.507812 332.957031 C 460.308594 332.957031 464.054688 330.988281 464.054688 329.921875 C 464.085938 329 463.878906 328.128906 463.441406 327.316406 C 461.367188 324.519531 451.753906 323.15625 447.945312 323.019531 C 373.5 320.339844 344.042969 273.878906 299.398438 273.878906 C 271.253906 273.878906 241.957031 297.269531 238.777344 297.269531 C 238.5 297.230469 238.238281 297.144531 237.992188 297.007812 C 237.746094 296.871094 237.53125 296.695312 237.351562 296.480469 C 237.171875 296.265625 237.035156 296.023438 236.945312 295.757812 C 236.851562 295.492188 236.8125 295.21875 236.824219 294.9375 C 236.824219 290.058594 274.0625 267.945312 298.671875 267.945312 C 339.679688 267.945312 392.265625 316.742188 430.980469 316.742188 C 431.335938 316.742188 431.511719 316.742188 432.199219 316.742188 C 444.0625 316.742188 471.695312 317.042969 471.695312 329.410156 C 471.691406 335.6875 465.375 338.195312 457.480469 338.195312 Z M 457.480469 338.195312 " fill-opacity="1" fill-rule="nonzero"/></g><path fill="#5271ff" d="M 293.660156 298.304688 C 294.390625 298.304688 295.125 298.3125 295.863281 298.332031 C 296.730469 298.300781 297.597656 298.28125 298.457031 298.28125 C 300.988281 298.238281 303.503906 298.394531 306.007812 298.757812 C 308.511719 299.121094 310.96875 299.683594 313.378906 300.445312 C 315.789062 301.210938 318.125 302.160156 320.382812 303.304688 C 322.636719 304.445312 324.789062 305.761719 326.832031 307.253906 C 343.59375 321.191406 349.601562 321.09375 349.601562 328.570312 C 349.601562 334.589844 340.425781 337.140625 340.425781 344.960938 C 340.425781 358.070312 360.304688 363.363281 360.304688 377.773438 C 360.304688 385.511719 352.683594 396 341.835938 396 C 326.355469 396 303.136719 376.335938 270.128906 376.335938 C 258.261719 376.335938 244.082031 381.273438 240.59375 381.273438 C 239.011719 381.273438 237.269531 380.175781 237.269531 379.386719 C 237.269531 373.828125 263.070312 370.691406 271.085938 370.691406 C 301.992188 370.691406 330.300781 390.167969 341.777344 390.167969 C 348.617188 390.167969 354.46875 383.046875 354.46875 377.503906 C 354.46875 367.132812 334.566406 361.382812 334.566406 344.628906 C 334.566406 335.277344 342.582031 332.265625 342.582031 328.375 C 342.617188 327.574219 342.371094 326.871094 341.839844 326.269531 C 318.78125 303.878906 306.003906 304.054688 295.316406 304.054688 C 265.339844 304.054688 243.253906 321.160156 239.023438 321.160156 C 238.746094 321.128906 238.480469 321.046875 238.230469 320.917969 C 237.980469 320.789062 237.761719 320.621094 237.574219 320.410156 C 237.390625 320.199219 237.246094 319.960938 237.148438 319.699219 C 237.050781 319.433594 237 319.164062 237.003906 318.882812 C 237.003906 315.804688 265.746094 298.304688 293.660156 298.304688 Z M 293.660156 298.304688 " fill-opacity="1" fill-rule="nonzero"/><g clip-path="url(#2366e03946)"><path fill="#ffffff" d="M 35.398438 798.640625 L 12.921875 798.640625 L 12.921875 776.164062 C 12.921875 788.578125 22.984375 798.640625 35.398438 798.640625 Z M 35.398438 798.640625 " fill-opacity="1" fill-rule="nonzero"/></g></svg>