<svg xmlns="http://www.w3.org/2000/svg" xmlns:xlink="http://www.w3.org/1999/xlink" width="1080" zoomAndPan="magnify" viewBox="0 0 810 809.999993" height="1080" preserveAspectRatio="xMidYMid meet" version="1.0"><defs><clipPath id="92c619c4dc"><path d="M 1 91 L 699.292969 91 L 699.292969 738.847656 L 1 738.847656 Z M 1 91 " clip-rule="nonzero"/></clipPath><clipPath id="f4f5ee7b30"><path d="M 0.292969 158 L 582 158 L 582 634 L 0.292969 634 Z M 0.292969 158 " clip-rule="nonzero"/></clipPath><clipPath id="db98c44c34"><path d="M 0.292969 236 L 489 236 L 489 564 L 0.292969 564 Z M 0.292969 236 " clip-rule="nonzero"/></clipPath><clipPath id="34e7500d1d"><path d="M 626.605469 587 L 769 587 L 769 595 L 626.605469 595 Z M 626.605469 587 " clip-rule="nonzero"/></clipPath><clipPath id="b77ac46316"><path d="M 628 586.765625 L 769.855469 586.765625 L 769.855469 598 L 628 598 Z M 628 586.765625 " clip-rule="nonzero"/></clipPath></defs><rect x="-81" width="972" fill="#ffffff" y="-80.999999" height="971.999992" fill-opacity="1"/><rect x="-81" width="972" fill="#ffffff" y="-80.999999" height="971.999992" fill-opacity="1"/><g clip-path="url(#92c619c4dc)"><path fill="#865136" d="M 155.519531 688.9375 C 159.328125 688.9375 163.117188 689.015625 166.894531 689.171875 C 169.3125 689.132812 171.722656 689.109375 174.121094 689.109375 C 274.984375 689.109375 331.996094 726.5625 382.632812 726.5625 C 468.773438 726.5625 451.546875 654.628906 457.28125 555.660156 C 465.914062 406.601562 687.367188 543.722656 687.367188 420.261719 C 687.367188 348.40625 624.117188 246.820312 478.320312 244.011719 C 358.273438 241.695312 355.757812 103.335938 178.109375 103.335938 C 69.875 103.335938 14.804688 155.8125 5.03125 155.8125 C 2.234375 155.8125 1.046875 152.441406 1.046875 150.9375 C 1.050781 140.101562 84.207031 91.199219 173.519531 91.199219 C 361.269531 91.199219 370.332031 231.203125 474.597656 231.75 C 654.640625 232.6875 699.292969 368.296875 699.292969 422.308594 C 699.292969 437.09375 698.894531 482.554688 638.746094 486.882812 C 502.242188 496.699219 465.375 468.652344 465.375 625.441406 L 465.375 626.644531 C 465.375 640.878906 464.554688 655.113281 463.996094 669.347656 C 461.4375 734.433594 394.160156 738.347656 382.28125 738.347656 C 321.875 738.347656 286.640625 701.027344 158.738281 701.027344 C 71.976562 701.027344 20.859375 732.871094 6.785156 732.871094 C 6.304688 732.871094 5.816406 732.871094 5.335938 732.824219 C 4.878906 732.667969 4.449219 732.449219 4.054688 732.167969 C 3.65625 731.886719 3.308594 731.558594 3.007812 731.175781 C 2.707031 730.796875 2.464844 730.382812 2.28125 729.929688 C 2.097656 729.480469 1.984375 729.015625 1.9375 728.53125 C 1.9375 721.296875 80.734375 688.9375 155.519531 688.9375 Z M 155.519531 688.9375 " fill-opacity="1" fill-rule="nonzero"/></g><g clip-path="url(#f4f5ee7b30)"><path fill="#865136" d="M 119.179688 603.96875 C 121.746094 603.96875 124.222656 603.917969 126.457031 603.917969 C 206.484375 605.082031 201.292969 608.640625 213.5625 608.898438 C 253.734375 609.742188 301.523438 621.535156 328.003906 621.535156 C 390.078125 621.535156 384.90625 570.335938 384.90625 569.402344 C 384.90625 535.0625 370.082031 510.835938 370.082031 476.300781 C 370.082031 370.945312 568.613281 413.054688 568.613281 371.6875 C 568.613281 334.851562 491.808594 316.042969 449.984375 307.179688 C 260.3125 266.984375 274.136719 171.074219 141.34375 171.074219 C 63.335938 171.074219 13.035156 227.25 4.40625 227.25 C 3.824219 227.207031 3.269531 227.058594 2.742188 226.800781 C 2.214844 226.546875 1.753906 226.199219 1.359375 225.765625 C 0.964844 225.332031 0.667969 224.839844 0.460938 224.292969 C 0.257812 223.742188 0.164062 223.175781 0.175781 222.589844 C 0.175781 217.96875 59.417969 158.996094 141.519531 158.996094 C 214.355469 158.996094 273.164062 204.742188 295.351562 223.238281 C 377.125 291.390625 363.152344 274.054688 500.648438 306.800781 C 536.878906 315.429688 581.601562 345.453125 581.601562 373.0625 C 581.601562 431.625 382.140625 379.039062 382.140625 476.753906 C 382.140625 511.988281 396.855469 531.117188 396.855469 571 C 396.855469 574.652344 401.15625 633.554688 323.828125 633.554688 C 304.808594 633.554688 216.601562 616.40625 152.738281 616.40625 C 151.125 616.40625 150.125 616.40625 146.6875 616.40625 C 133.308594 616.40625 119.929688 616.140625 106.550781 616.140625 C 52.265625 616.140625 27.792969 625.246094 6.164062 625.246094 C 5.601562 625.042969 5.070312 624.777344 4.578125 624.4375 C 4.085938 624.101562 3.644531 623.703125 3.253906 623.253906 C 2.863281 622.800781 2.539062 622.304688 2.277344 621.765625 C 2.015625 621.230469 1.824219 620.667969 1.710938 620.082031 C 1.710938 611.324219 76.578125 603.722656 104.945312 603.722656 C 112.582031 603.722656 114.167969 603.96875 119.179688 603.96875 Z M 119.179688 603.96875 " fill-opacity="1" fill-rule="nonzero"/></g><g clip-path="url(#db98c44c34)"><path fill="#865136" d="M 458.558594 382.378906 C 443.230469 382.378906 427.921875 382.027344 414.472656 381.847656 C 407.324219 381.417969 400.289062 381.203125 393.371094 381.203125 C 307.515625 381.203125 287.578125 401.195312 287.578125 426.75 C 287.578125 471.480469 328.582031 507.652344 328.582031 535.148438 C 328.582031 562.699219 301.816406 563.5625 297.1875 563.5625 C 268.117188 563.5625 153.144531 530.210938 82.886719 530.210938 C 59.378906 530.210938 14.875 539.027344 5.871094 539.027344 C 4.582031 539.027344 1.8125 535.707031 1.8125 533.75 C 1.8125 526.925781 54.96875 518.429688 84.234375 518.429688 C 138.800781 518.429688 284.882812 551.667969 295.410156 551.667969 C 299.570312 551.667969 315.945312 549.851562 315.945312 535.355469 C 315.945312 509.308594 276.214844 476.449219 276.214844 430.109375 C 276.214844 406.605469 278.917969 369.007812 394.234375 369.007812 C 410.125 369.007812 440.269531 371.511719 452.382812 371.511719 C 464.421875 371.511719 472.195312 367.425781 472.195312 365.210938 C 472.261719 363.292969 471.835938 361.492188 470.921875 359.804688 C 466.625 353.996094 446.675781 351.171875 438.765625 350.886719 C 284.277344 345.324219 223.144531 248.910156 130.503906 248.910156 C 72.09375 248.910156 11.296875 297.449219 4.703125 297.449219 C 4.125 297.367188 3.578125 297.1875 3.070312 296.902344 C 2.558594 296.621094 2.117188 296.257812 1.742188 295.808594 C 1.367188 295.363281 1.082031 294.863281 0.894531 294.3125 C 0.703125 293.757812 0.621094 293.191406 0.640625 292.609375 C 0.640625 282.480469 77.921875 236.597656 128.996094 236.597656 C 214.09375 236.597656 323.222656 337.859375 403.5625 337.859375 C 404.296875 337.859375 404.667969 337.859375 406.089844 337.859375 C 430.710938 337.859375 488.054688 338.480469 488.054688 364.144531 C 488.042969 377.179688 474.9375 382.378906 458.558594 382.378906 Z M 458.558594 382.378906 " fill-opacity="1" fill-rule="nonzero"/></g><path fill="#865136" d="M 118.59375 299.59375 C 120.109375 299.59375 121.632812 299.613281 123.160156 299.65625 C 124.964844 299.585938 126.761719 299.550781 128.550781 299.550781 C 133.796875 299.457031 139.019531 299.785156 144.214844 300.539062 C 149.410156 301.292969 154.507812 302.460938 159.511719 304.042969 C 164.515625 305.625 169.359375 307.601562 174.042969 309.972656 C 178.726562 312.339844 183.1875 315.074219 187.425781 318.167969 C 222.21875 347.089844 234.683594 346.890625 234.683594 362.410156 C 234.683594 374.894531 215.644531 380.1875 215.644531 396.421875 C 215.644531 423.628906 256.894531 434.605469 256.894531 464.511719 C 256.894531 480.570312 241.082031 502.339844 218.566406 502.339844 C 186.441406 502.339844 138.257812 461.527344 69.761719 461.527344 C 45.136719 461.527344 15.707031 471.773438 8.46875 471.773438 C 5.1875 471.773438 1.570312 469.5 1.570312 467.859375 C 1.570312 456.324219 55.113281 449.816406 71.742188 449.816406 C 135.882812 449.816406 194.628906 490.234375 218.445312 490.234375 C 232.644531 490.234375 244.789062 475.457031 244.789062 463.949219 C 244.789062 442.429688 203.480469 430.496094 203.480469 395.734375 C 203.480469 376.328125 220.117188 370.074219 220.117188 362 C 220.152344 361.199219 220.039062 360.421875 219.769531 359.667969 C 219.503906 358.910156 219.105469 358.234375 218.574219 357.632812 C 170.726562 311.164062 144.203125 311.53125 122.027344 311.53125 C 59.824219 311.53125 13.992188 347.027344 5.210938 347.027344 C 4.632812 346.964844 4.082031 346.796875 3.5625 346.527344 C 3.046875 346.257812 2.59375 345.90625 2.207031 345.46875 C 1.816406 345.03125 1.523438 344.539062 1.316406 343.992188 C 1.113281 343.445312 1.011719 342.882812 1.015625 342.296875 C 1.019531 335.910156 60.667969 299.59375 118.59375 299.59375 Z M 118.59375 299.59375 " fill-opacity="1" fill-rule="nonzero"/><g clip-path="url(#34e7500d1d)"><path fill="#ffffff" d="M 627.617188 592.691406 C 636.082031 591.257812 657.570312 589.789062 692.082031 588.285156 L 692.09375 588.285156 C 699.929688 588.011719 709.296875 587.839844 720.195312 587.769531 C 722.839844 587.753906 725.914062 587.753906 729.414062 587.765625 L 729.417969 587.765625 C 754.230469 587.90625 766.949219 587.960938 767.570312 587.9375 C 766.890625 587.964844 766.546875 588.324219 766.535156 589.019531 L 766.535156 589.058594 C 766.546875 589.746094 766.886719 590.105469 767.554688 590.140625 C 767.554688 590.140625 767.554688 590.140625 767.550781 590.140625 C 766.941406 590.113281 766.472656 589.59375 766.5 588.984375 C 766.527344 588.375 767.042969 587.90625 767.652344 587.933594 C 767.660156 587.933594 767.664062 587.933594 767.671875 587.933594 C 768.375 587.972656 768.730469 588.332031 768.742188 589.019531 L 768.742188 589.058594 C 768.730469 589.753906 768.367188 590.117188 767.65625 590.144531 C 767 590.171875 754.25 590.113281 729.402344 589.972656 L 729.40625 589.972656 C 725.910156 589.964844 722.84375 589.964844 720.207031 589.976562 C 709.332031 590.046875 699.984375 590.21875 692.167969 590.492188 L 692.179688 590.492188 C 657.757812 591.992188 636.359375 593.453125 627.984375 594.867188 C 627.382812 594.96875 626.8125 594.566406 626.710938 593.964844 C 626.609375 593.363281 627.015625 592.792969 627.617188 592.691406 Z M 627.617188 592.691406 " fill-opacity="0.996" fill-rule="nonzero"/></g><g clip-path="url(#b77ac46316)"><path fill="#ffffff" d="M 629.542969 595.5 C 643.0625 593.324219 665.925781 591.105469 698.132812 588.847656 L 698.136719 588.847656 C 716.175781 587.675781 739.675781 587.003906 768.648438 586.828125 C 769.257812 586.824219 769.753906 587.316406 769.757812 587.925781 C 769.761719 588.535156 769.269531 589.03125 768.660156 589.035156 C 739.734375 589.210938 716.273438 589.882812 698.28125 591.050781 L 698.285156 591.050781 C 666.148438 593.304688 643.347656 595.515625 629.890625 597.679688 C 629.289062 597.777344 628.722656 597.367188 628.625 596.765625 C 628.53125 596.164062 628.9375 595.597656 629.542969 595.5 Z M 629.542969 595.5 " fill-opacity="0.996" fill-rule="nonzero"/></g><path fill="#ffffff" d="M 630.527344 594.492188 C 639.054688 592.503906 657.265625 590.964844 685.160156 589.867188 L 685.171875 589.867188 C 701.054688 589.410156 713.203125 589.167969 721.617188 589.148438 C 735.671875 589.125 749.367188 589.324219 762.699219 589.746094 C 763.308594 589.765625 763.785156 590.277344 763.769531 590.886719 C 763.75 591.496094 763.238281 591.972656 762.628906 591.953125 C 749.320312 591.535156 735.652344 591.335938 721.621094 591.355469 C 713.230469 591.378906 701.101562 591.617188 685.234375 592.074219 L 685.246094 592.074219 C 657.492188 593.164062 639.417969 594.6875 631.027344 596.644531 C 630.433594 596.78125 629.839844 596.414062 629.699219 595.820312 C 629.5625 595.222656 629.933594 594.628906 630.527344 594.492188 Z M 630.527344 594.492188 " fill-opacity="0.996" fill-rule="nonzero"/></svg>