<svg xmlns="http://www.w3.org/2000/svg" xmlns:xlink="http://www.w3.org/1999/xlink" width="1080" zoomAndPan="magnify" viewBox="0 0 810 809.999993" height="1080" preserveAspectRatio="xMidYMid meet" version="1.0"><defs><clipPath id="803640b8c6"><path d="M 1 30 L 809.996094 30 L 809.996094 779.871094 L 1 779.871094 Z M 1 30 " clip-rule="nonzero"/></clipPath><clipPath id="35c4f01a84"><path d="M 12.921875 776.164062 L 35.421875 776.164062 L 35.421875 798.664062 L 12.921875 798.664062 Z M 12.921875 776.164062 " clip-rule="nonzero"/></clipPath></defs><rect x="-81" width="972" fill="#ffffff" y="-80.999999" height="971.999992" fill-opacity="1"/><rect x="-81" width="972" fill="#ffffff" y="-80.999999" height="971.999992" fill-opacity="1"/><g clip-path="url(#803640b8c6)"><path fill="#5271ff" d="M 180.136719 722.644531 C 184.546875 722.644531 188.941406 722.738281 193.3125 722.917969 C 196.117188 722.871094 198.90625 722.847656 201.683594 722.847656 C 318.519531 722.847656 384.554688 766.230469 443.207031 766.230469 C 542.984375 766.230469 523.027344 682.90625 529.671875 568.269531 C 539.671875 395.613281 796.183594 554.441406 796.183594 411.4375 C 796.183594 328.207031 722.917969 210.535156 554.042969 207.285156 C 414.992188 204.601562 412.078125 44.339844 206.304688 44.339844 C 80.933594 44.339844 17.148438 105.121094 5.824219 105.121094 C 2.585938 105.121094 1.210938 101.214844 1.210938 99.472656 C 1.214844 86.921875 97.539062 30.277344 200.988281 30.277344 C 418.460938 30.277344 428.957031 192.449219 549.730469 193.082031 C 758.277344 194.164062 809.996094 351.246094 809.996094 413.804688 C 809.996094 430.933594 809.539062 483.59375 739.863281 488.605469 C 581.75 499.976562 539.046875 467.484375 539.046875 649.097656 L 539.046875 650.492188 C 539.046875 666.980469 538.097656 683.46875 537.449219 699.957031 C 534.488281 775.347656 456.558594 779.878906 442.800781 779.878906 C 372.828125 779.878906 332.015625 736.652344 183.867188 736.652344 C 83.371094 736.652344 24.160156 773.535156 7.859375 773.535156 C 7.300781 773.535156 6.738281 773.535156 6.179688 773.480469 C 5.648438 773.296875 5.152344 773.046875 4.695312 772.722656 C 4.234375 772.394531 3.828125 772.015625 3.480469 771.574219 C 3.132812 771.132812 2.851562 770.652344 2.640625 770.128906 C 2.429688 769.609375 2.296875 769.070312 2.242188 768.507812 C 2.242188 760.128906 93.511719 722.644531 180.136719 722.644531 Z M 180.136719 722.644531 " fill-opacity="1" fill-rule="nonzero"/></g><path fill="#5271ff" d="M 138.046875 624.226562 C 141.015625 624.226562 143.886719 624.167969 146.472656 624.167969 C 239.171875 625.515625 233.160156 629.640625 247.371094 629.9375 C 293.898438 630.914062 349.253906 644.574219 379.929688 644.574219 C 451.828125 644.574219 445.839844 585.269531 445.839844 584.1875 C 445.839844 544.410156 428.667969 516.347656 428.667969 476.347656 C 428.667969 354.3125 658.628906 403.085938 658.628906 355.171875 C 658.628906 312.507812 569.667969 290.71875 521.21875 280.449219 C 301.523438 233.890625 317.535156 122.796875 163.71875 122.796875 C 73.359375 122.796875 15.09375 187.871094 5.105469 187.871094 C 4.769531 187.84375 4.4375 187.789062 4.113281 187.703125 C 3.789062 187.613281 3.476562 187.496094 3.171875 187.347656 C 2.871094 187.203125 2.585938 187.027344 2.316406 186.824219 C 2.046875 186.625 1.800781 186.398438 1.574219 186.148438 C 1.347656 185.898438 1.148438 185.632812 0.972656 185.34375 C 0.796875 185.058594 0.652344 184.757812 0.535156 184.441406 C 0.417969 184.125 0.332031 183.800781 0.273438 183.46875 C 0.21875 183.140625 0.195312 182.804688 0.203125 182.46875 C 0.203125 177.121094 68.824219 108.808594 163.921875 108.808594 C 248.285156 108.808594 316.40625 161.796875 342.109375 183.21875 C 436.824219 262.164062 420.640625 242.082031 579.90625 280.011719 C 621.871094 290.007812 673.671875 324.785156 673.671875 356.765625 C 673.671875 424.597656 442.632812 363.6875 442.632812 476.871094 C 442.632812 517.6875 459.683594 539.839844 459.683594 586.035156 C 459.683594 590.269531 464.660156 658.496094 375.089844 658.496094 C 353.058594 658.496094 250.890625 638.632812 176.914062 638.632812 C 175.046875 638.632812 173.890625 638.632812 169.90625 638.632812 C 154.414062 638.632812 138.914062 638.328125 123.414062 638.328125 C 60.535156 638.328125 32.191406 648.871094 7.136719 648.871094 C 6.484375 648.640625 5.871094 648.328125 5.300781 647.9375 C 4.730469 647.542969 4.21875 647.085938 3.765625 646.5625 C 3.316406 646.039062 2.9375 645.464844 2.632812 644.84375 C 2.332031 644.21875 2.113281 643.570312 1.980469 642.890625 C 1.980469 632.746094 88.699219 623.9375 121.558594 623.9375 C 130.40625 623.9375 132.242188 624.226562 138.046875 624.226562 Z M 138.046875 624.226562 " fill-opacity="1" fill-rule="nonzero"/><path fill="#5271ff" d="M 531.152344 367.554688 C 513.394531 367.554688 495.664062 367.148438 480.089844 366.941406 C 471.808594 366.441406 463.660156 366.191406 455.644531 366.191406 C 356.199219 366.191406 333.101562 389.347656 333.101562 418.949219 C 333.101562 470.765625 380.597656 512.664062 380.597656 544.511719 C 380.597656 576.421875 349.59375 577.425781 344.234375 577.425781 C 310.558594 577.425781 177.386719 538.789062 96.003906 538.789062 C 68.777344 538.789062 17.230469 549.003906 6.800781 549.003906 C 5.304688 549.003906 2.097656 545.160156 2.097656 542.890625 C 2.097656 534.984375 63.667969 525.148438 97.566406 525.148438 C 160.773438 525.148438 329.980469 563.648438 342.175781 563.648438 C 346.992188 563.648438 365.964844 561.542969 365.964844 544.753906 C 365.964844 514.578125 319.941406 476.519531 319.941406 422.84375 C 319.941406 395.617188 323.074219 352.066406 456.644531 352.066406 C 475.054688 352.066406 509.96875 354.96875 524 354.96875 C 537.941406 354.96875 546.949219 350.234375 546.949219 347.671875 C 547.023438 345.449219 546.535156 343.363281 545.476562 341.40625 C 540.496094 334.679688 517.386719 331.410156 508.226562 331.074219 C 329.277344 324.636719 258.46875 212.957031 151.160156 212.957031 C 83.503906 212.957031 13.085938 269.179688 5.445312 269.179688 C 5.113281 269.132812 4.785156 269.058594 4.46875 268.953125 C 4.152344 268.84375 3.847656 268.710938 3.554688 268.546875 C 3.261719 268.386719 2.984375 268.199219 2.726562 267.984375 C 2.46875 267.773438 2.230469 267.539062 2.015625 267.28125 C 1.800781 267.023438 1.609375 266.75 1.445312 266.457031 C 1.28125 266.167969 1.144531 265.863281 1.035156 265.546875 C 0.925781 265.226562 0.847656 264.902344 0.796875 264.574219 C 0.746094 264.242188 0.730469 263.910156 0.742188 263.574219 C 0.742188 251.84375 90.257812 198.695312 149.414062 198.695312 C 247.988281 198.695312 374.390625 315.988281 467.449219 315.988281 C 468.300781 315.988281 468.730469 315.988281 470.378906 315.988281 C 498.898438 315.988281 565.320312 316.707031 565.320312 346.433594 C 565.304688 361.53125 550.125 367.554688 531.152344 367.554688 Z M 531.152344 367.554688 " fill-opacity="1" fill-rule="nonzero"/><path fill="#5271ff" d="M 137.363281 271.664062 C 139.125 271.664062 140.886719 271.691406 142.65625 271.738281 C 144.75 271.65625 146.828125 271.617188 148.898438 271.617188 C 154.980469 271.507812 161.027344 271.886719 167.042969 272.761719 C 173.058594 273.632812 178.96875 274.984375 184.761719 276.816406 C 190.558594 278.652344 196.171875 280.941406 201.597656 283.683594 C 207.019531 286.429688 212.1875 289.597656 217.097656 293.179688 C 257.394531 326.679688 271.835938 326.449219 271.835938 344.421875 C 271.835938 358.886719 249.78125 365.019531 249.78125 383.820312 C 249.78125 415.335938 297.5625 428.050781 297.5625 462.691406 C 297.5625 481.292969 279.246094 506.507812 253.167969 506.507812 C 215.953125 506.507812 160.144531 459.238281 80.804688 459.238281 C 52.28125 459.238281 18.191406 471.105469 9.804688 471.105469 C 6.007812 471.105469 1.816406 468.46875 1.816406 466.570312 C 1.816406 453.207031 63.835938 445.667969 83.097656 445.667969 C 157.390625 445.667969 225.441406 492.484375 253.027344 492.484375 C 269.472656 492.484375 283.539062 475.371094 283.539062 462.039062 C 283.539062 437.113281 235.695312 423.289062 235.695312 383.023438 C 235.695312 360.546875 254.960938 353.304688 254.960938 343.953125 C 255.003906 343.027344 254.871094 342.125 254.5625 341.25 C 254.25 340.375 253.789062 339.585938 253.175781 338.890625 C 197.753906 285.066406 167.03125 285.492188 141.347656 285.492188 C 69.292969 285.492188 16.203125 326.609375 6.035156 326.609375 C 5.699219 326.570312 5.375 326.503906 5.054688 326.40625 C 4.734375 326.308594 4.421875 326.183594 4.125 326.027344 C 3.828125 325.875 3.546875 325.695312 3.28125 325.488281 C 3.019531 325.28125 2.773438 325.050781 2.554688 324.800781 C 2.332031 324.550781 2.132812 324.28125 1.960938 323.996094 C 1.785156 323.707031 1.640625 323.40625 1.523438 323.09375 C 1.40625 322.78125 1.316406 322.457031 1.257812 322.128906 C 1.199219 321.796875 1.171875 321.464844 1.175781 321.128906 C 1.179688 313.730469 70.269531 271.664062 137.363281 271.664062 Z M 137.363281 271.664062 " fill-opacity="1" fill-rule="nonzero"/><g clip-path="url(#35c4f01a84)"><path fill="#ffffff" d="M 35.398438 798.640625 L 12.921875 798.640625 L 12.921875 776.164062 C 12.921875 788.578125 22.984375 798.640625 35.398438 798.640625 Z M 35.398438 798.640625 " fill-opacity="1" fill-rule="nonzero"/></g></svg>